<svg width="630" height="276" viewBox="0 0 630 276" fill="none" xmlns="http://www.w3.org/2000/svg">
<path d="M102.649 85.1175C119.937 83.5205 135.831 92.5675 144.531 107.281C165.189 73.7185 220.194 78.7805 228.939 118.23C230.862 126.904 229.86 146.084 229.858 155.574L229.858 226.624C226.552 226.789 222.504 226.689 219.171 226.614C200.836 226.179 182.101 227.229 163.816 226.549C163.089 219.894 163.523 204.624 163.535 197.319L163.596 140.674C163.599 133.599 164.018 125.374 163.501 118.507C162.696 107.823 147.958 110.211 147.846 120.872C147.81 124.293 147.872 128.094 147.875 131.494L147.842 153.144L147.861 226.594C144.102 226.699 139.858 226.564 136.062 226.524L82.1897 226.649C81.6912 217.434 81.9617 205.939 81.9642 196.624L82.0036 146.589C82.0221 137.354 82.1831 128.119 81.8681 118.871C82.0241 115.227 80.0292 111.592 75.8547 111.572C64.5287 111.519 66.3022 123.668 66.3377 130.259L66.2977 151.714L66.3692 226.324C60.3362 226.929 45.5956 226.659 39.0291 226.574C26.2811 226.404 12.9396 226.884 0.320144 226.659C-0.363356 181.229 0.269648 134.169 0.208648 88.5661C4.96015 87.6136 20.4691 87.925 26.1391 87.97C39.3156 88.0745 53.2491 87.7155 66.3281 88.177L66.4072 104.117C67.0167 103.33 67.6407 102.554 68.2782 101.789C77.7212 90.3555 88.2677 86.4775 102.649 85.1175Z" fill="#A565FF"/>
<path d="M548.552 85.1161C591.017 79.8206 632.267 117.109 629.827 159.954C629.577 164.374 629.012 166.769 627.312 170.819C618.097 170.964 551.412 169.769 547.307 171.669C546.692 171.954 546.817 171.964 546.552 172.694C544.932 177.084 545.077 197.539 547.102 201.854C549.157 206.239 553.767 209.429 558.207 211.039C574.552 216.974 593.082 207.934 603.917 195.689C606.537 192.729 609.637 184.329 613.217 183.209C615.932 182.364 619.502 184.499 621.592 185.979L622.082 186.334C623.157 190.619 616.592 199.559 614.042 202.829C601.802 218.639 583.727 228.874 563.872 231.229C543.967 233.609 523.942 227.899 508.287 215.384C492.712 203.074 482.737 185.024 480.592 165.289C476.812 127.869 503.667 92.5566 540.602 86.0631C543.207 85.6051 545.917 85.3656 548.552 85.1161Z" fill="#A565FF"/>
<path d="M428.222 85.6246C442.722 83.9676 458.967 91.2596 467.117 103.432C472.997 112.073 475.192 122.703 473.207 132.964C471.272 142.809 465.452 151.454 457.062 156.954C448.887 162.304 438.892 164.124 429.357 161.994C419.932 159.899 411.752 154.094 406.647 145.899C401.957 138.399 400.452 129.334 402.467 120.72C405.047 110.162 410.617 104.861 419.537 99.4461C411.602 101.356 406.252 104.114 400.317 109.714C390.827 118.668 393.022 132.179 393.012 144.229L392.972 182.039L392.942 226.469C389.017 226.664 384.697 226.669 380.772 226.579C362.972 226.164 344.717 227.274 326.987 226.544C326.592 211.379 327.032 194.224 327.027 178.904L327.032 88.1976C334.977 87.5251 349.812 87.9176 358.197 87.9331C368.357 87.9516 383.497 87.4735 393.227 88.298C392.772 92.8255 392.947 99.153 392.937 103.828L394.577 101.856C403.662 91.12 414.497 86.8071 428.222 85.6246Z" fill="#A565FF"/>
<path d="M245.886 88.0446C254.23 87.4651 269.152 88.0281 278.125 87.9421C285.736 87.8686 305.077 87.5151 311.382 88.5236L311.387 179.224C311.382 185.934 311.847 225.234 310.687 226.719C288.88 226.429 267.065 226.934 245.384 226.694C244.699 215.014 244.931 90.3341 245.886 88.0446Z" fill="#A565FF"/>
<path d="M275.321 0.10449C296.572 -1.44851 315.072 14.4925 316.677 35.7405C318.282 56.9885 302.383 75.526 281.139 77.1815C259.823 78.8425 241.208 62.88 239.599 41.5595C237.989 20.239 253.996 1.66249 275.321 0.10449Z" fill="#A565FF"/>
<path d="M535.672 244.004C543.022 243.574 550.117 244.949 552.602 252.699C555.967 263.184 552.377 272.024 542.037 275.334C534.667 275.774 527.617 273.964 525.267 266.319C521.987 255.634 525.217 247.314 535.672 244.004Z" fill="#A565FF"/>
<path d="M537.842 249.969C545.747 250.724 546.542 257.704 544.527 264.394C543.787 266.849 542.277 267.974 539.957 268.979C529.997 268.974 530.057 253.734 537.842 249.969Z" fill="#EEF8F8"/>
<path d="M600.337 244.399C610.062 244.394 625.287 242.559 626.337 256.024C626.837 262.409 626.702 266.204 622.532 271.309C616.847 276.039 607.322 274.999 600.077 274.939L600.337 244.399Z" fill="#A565FF"/>
<path d="M607.747 250.884C609.647 250.869 612.637 250.729 614.327 251.569C620.017 254.404 619.167 261.564 616.627 266.369C614.147 268.224 611.637 269.679 608.837 267.839C606.922 264.334 607.732 255.584 607.747 250.884Z" fill="#EEF8F8"/>
<path d="M432.447 244.444C438.167 244.394 449.142 243.404 453.282 247.434C456.747 250.809 453.947 255.554 451.007 257.994C451.957 262.294 457.622 260.129 454.542 270.404C449.647 276.599 439.702 275.084 432.422 275.019C432.537 264.829 432.542 254.634 432.447 244.444Z" fill="#A565FF"/>
<path d="M440.322 262.064C443.197 262.029 446.082 261.659 447.497 264.554C447.407 266.529 447.397 266.424 446.402 268.164C444.192 268.609 442.142 268.789 439.907 269.029C439.892 266.549 440.097 264.514 440.322 262.064Z" fill="#EEF8F8"/>
<path d="M440.212 250.689C442.297 250.819 444.607 250.669 446.247 251.819C446.947 253.719 446.682 253.249 446.172 255.584C443.927 256.174 442.852 256.594 440.917 255.884C439.927 254.379 440.192 252.559 440.212 250.689Z" fill="#EEF8F8"/>
<path d="M582.047 244.489L588.937 244.419L588.902 274.824L579.922 274.919C578.747 271.249 572.887 258.974 570.932 254.274C571.047 261.174 571.062 268.074 570.972 274.974L563.597 274.934L563.542 244.449L573.362 244.579C576.342 249.914 579.682 259.189 581.827 265.049C581.982 258.184 581.817 251.444 582.047 244.489Z" fill="#A565FF"/>
<path d="M465.742 244.404L485.362 244.574C485.452 246.504 485.387 248.839 485.387 250.804L481.367 250.854C477.982 250.864 475.582 250.824 472.717 252.914L472.892 254.479C476.742 256.554 479.462 255.984 483.912 255.859L483.997 262.439C481.062 262.454 475.982 261.854 473.562 262.989L472.962 264.694C473.082 265.459 473.207 267.489 473.777 267.764C476.732 269.194 482.447 268.434 485.757 268.414L485.807 274.864C479.147 274.834 472.487 274.909 465.832 275.089C465.337 265.194 465.592 254.309 465.742 244.404Z" fill="#A565FF"/>
<path d="M386.222 244.449C390.257 244.479 402.327 244.304 405.492 244.974C406.137 246.464 406.242 249.169 405.607 250.674C401.522 251.894 396.347 248.649 393.937 252.904C393.912 255.189 393.502 254.354 394.602 255.779C396.592 256.104 402.157 255.899 404.462 255.864L404.517 262.439C401.587 262.494 396.322 261.704 394.007 262.984L393.507 264.714C393.617 265.494 393.752 267.479 394.307 267.744C397.267 269.159 402.967 268.494 406.237 268.499L406.297 274.999C399.692 274.864 392.797 274.959 386.172 274.964L386.222 244.449Z" fill="#A565FF"/>
<path d="M355.872 244.634C358.897 244.539 373.867 244.109 375.392 245.404C375.612 247.499 375.687 247.794 375.352 249.839C372.307 252.659 368.547 249.874 364.047 251.234C362.737 253.289 362.762 255.074 365.042 256.274C368.177 256.014 370.767 256.064 373.907 256.104L373.822 262.349C371.207 262.354 365.982 262.109 363.742 262.704L363.217 263.804C363.217 264.834 363.062 267.219 363.982 267.719C366.842 269.269 372.452 268.539 375.802 268.584L375.722 274.874L355.827 274.924C355.782 264.949 355.592 254.574 355.872 244.634Z" fill="#A565FF"/>
<path d="M332.497 244.039C337.297 243.749 339.772 244.144 344.367 245.119C344.107 247.259 343.977 249.674 343.812 251.844C340.662 250.989 334.872 249.524 332.052 251.439C332.077 256.339 344.372 256.809 345.422 261.999C347.117 270.409 343.412 273.684 336.117 275.394C331.332 275.784 329.372 275.174 324.817 274.039L324.612 267.054C328.952 268.239 335.657 271.244 338.152 265.989C336.752 262.364 326.847 261.599 325.152 257.164C322.327 249.779 326.022 246.184 332.497 244.039Z" fill="#A565FF"/>
<path d="M492.292 244.374L500.197 244.419C501.972 247.899 503.762 251.929 505.447 255.499C507.567 251.674 508.942 248.609 510.712 244.584L519.587 244.409C517.452 248.514 515.057 252.599 512.757 256.629C508.637 263.819 509.362 266.844 509.412 274.969H501.657C501.522 256.104 497.502 259.739 492.292 244.374Z" fill="#A565FF"/>
<path d="M547.337 100.917C551.422 100.772 559.222 99.8311 562.297 102.389C562.747 103.681 563.097 105.069 563.117 106.463C563.327 122.107 563.602 137.889 562.982 153.519C562.942 154.584 562.162 155.494 561.507 156.264C559.252 156.889 546.462 158.069 546.422 155.049C546.297 146.244 544.082 106.789 547.337 100.917Z" fill="white"/>
</svg>
